#N canvas 1594 38 1920 1030 10;
#X declare -lib mrpeach;
#X obj 239 37 import mrpeach;
#X obj 237 109 udpreceive 6161;
#X obj 239 307 unpack i;
#X obj 237 149 unpackOSC;
#X text 365 108 Init OSC protocol;
#X obj 239 376 \$1;
#X text 178 275 Fetch back an Integer;
#X text 153 344 Save for later the value of "NbSpots;
#X obj 238 203 routeOSC /NbSpots /Position;
#X text 259 168 Look into the message "NbSpots" and "Position;
#X obj 480 1095 dac~ 1 2;
#X obj -119 528 /~ 1;
#X obj -91 113 bng 15 250 50 0 empty empty empty 17 7 0 10 -262144
-1 -1;
#X obj -119 94 bng 15 250 50 0 empty empty empty 17 7 0 10 -262144
-1 -1;
#X msg -91 189 1;
#X msg -119 189 0;
#X text -73 111 Start;
#X text -99 92 Stop;
#X obj -118 356 *~ 0.5;
#X floatatom 30 335 5 0 0 0 - - -;
#X obj -276 648 vu 15 120 empty empty -1 -8 0 10 -66577 -1 1 0;
#X obj -277 621 - 100;
#X obj -277 601 env~ 8192;
#X text -236 675 fs;
#X text -203 632 0dBfs = 100dB;
#X obj -119 70 select 0 1;
#X obj -85 334 / 127;
#X obj -98 430 expr $f1 \; if($f1 <=0.15 \, 0.15 \, $f1);
#X obj -97 474 / 0.15;
#X obj -117 775 earplug~ 0 0;
#X obj -119 223 readsf~;
#X text -30 100 audio on/off;
#X msg -28 66 \; pd dsp \$1;
#X obj -76 310 hsl 128 15 0 127 0 0 empty empty empty -2 -8 0 10 -262144
-1 -1 4700 1;
#X text -29 282 set volume from OSC;
#X text -10 385 set volume from distance;
#X text -58 799 audio output;
#N canvas 138 309 1021 570 OSC_receiver 0;
#X msg 330 173 1 \$1 \$2 \$3;
#X obj 330 197 spray 4;
#X obj 191 187 s trigger;
#X obj 462 201 print OSC;
#X obj 191 146 route TriggerOnOff;
#X obj 330 147 route Position;
#X obj 343 271 s dist;
#X obj 356 248 s azim;
#X obj 369 226 s elev;
#X obj 462 154 gate;
#X obj 510 118 tgl 15 0 empty empty empty 17 7 0 10 -262144 -1 -1 1
1;
#X obj 510 63 loadbang;
#X msg 510 93 1;
#X text 27 21 This patch receives OSC messages from Blender (12002@localhost)
;
#X obj 191 168 tgl 15 0 empty empty empty 17 7 0 10 -262144 -1 -1 0
1;
#X obj 381 59;
#X obj 206 314 print;
#X obj 156 270;
#X obj 277 59 dumpOSC 8000;
#X obj 52 145 route Volume;
#X obj 52 204 send volume;
#X connect 0 0 1 0;
#X connect 1 1 6 0;
#X connect 1 2 7 0;
#X connect 1 3 8 0;
#X connect 4 0 14 0;
#X connect 5 0 0 0;
#X connect 9 0 3 0;
#X connect 10 0 9 0;
#X connect 11 0 12 0;
#X connect 12 0 10 0;
#X connect 14 0 2 0;
#X connect 18 0 4 0;
#X connect 18 0 5 0;
#X connect 18 0 9 1;
#X connect 18 0 16 0;
#X connect 18 0 19 0;
#X connect 19 0 20 0;
#X restore -379 50 pd OSC_receiver;
#X text -61 188 Load and read audio file;
#X obj -80 256 bng 15 250 50 0 empty empty empty 17 7 0 10 -262144
-1 -1;
#X text -62 243 bang when finished reading;
#X floatatom 49 468 5 0 0 0 - - -;
#X obj -119 49 r trigger;
#X text 58 429 limit minimum distance;
#X obj 433 300 unpack i i f f f;
#X obj 270 614 s volume1;
#X obj -85 283 r volume1;
#X obj 347 610 s dist_volume1;
#X obj 444 610 s azm1;
#X obj 506 610 s elev1;
#X obj 596 610 s volume2;
#X obj 673 606 s dist_volume2;
#X obj 771 606 s azm2;
#X obj 832 606 s elev2;
#X obj 988 617 s volume3;
#X obj -98 390 r dist_volume1;
#X obj -83 729 r azm1;
#X obj -23 729 r elev1;
#X text -48 809 comment;
#X msg -58 206 open sonar01.wav \, 1;
#X obj 61 772 print;
#X text 374 258 Unpack the position of the object #i \, i: number source
\, i volume \, f: distance \, f: azimuth \, f: elevation;
#X obj 392 378 sel 1 2 3;
#X obj 529 341 * 0.01;
#X obj 381 534 spigot;
#X obj 582 439 pack i f f f;
#X obj 381 573 unpack i f f f;
#X obj 691 534 spigot;
#X obj 691 574 unpack i f f f;
#X obj 1012 541 spigot;
#X obj 1012 580 unpack i f f f;
#X obj 1062 611 s dist_volume3;
#X obj 1160 611 s azm3;
#X obj 1221 611 s elev3;
#X msg 335 495 1;
#X msg 706 504 1;
#X msg 1016 514 1;
#X obj 1394 591 /~ 1;
#X obj 1422 176 bng 15 250 50 0 empty empty empty 17 7 0 10 -262144
-1 -1;
#X obj 1394 157 bng 15 250 50 0 empty empty empty 17 7 0 10 -262144
-1 -1;
#X msg 1422 252 1;
#X msg 1394 252 0;
#X text 1440 174 Start;
#X text 1414 155 Stop;
#X obj 1395 419 *~ 0.5;
#X floatatom 1543 398 5 0 0 0 - - -;
#X obj 1237 711 vu 15 120 empty empty -1 -8 0 10 -66577 -1 1 0;
#X obj 1236 684 - 100;
#X obj 1236 664 env~ 8192;
#X text 1277 738 fs;
#X text 1310 695 0dBfs = 100dB;
#X obj 1394 133 select 0 1;
#X obj 1428 397 / 127;
#X obj 1415 493 expr $f1 \; if($f1 <=0.15 \, 0.15 \, $f1);
#X obj 1416 537 / 0.15;
#X obj 1396 838 earplug~ 0 0;
#X obj 1394 286 readsf~;
#X text 1483 163 audio on/off;
#X msg 1485 129 \; pd dsp \$1;
#X obj 1431 374 hsl 128 15 0 127 0 0 empty empty empty -2 -8 0 10 -262144
-1 -1 4700 1;
#X text 1484 345 set volume from OSC;
#X text 1503 448 set volume from distance;
#X text 1455 862 audio output;
#X text 1452 251 Load and read audio file;
#X obj 1433 319 bng 15 250 50 0 empty empty empty 17 7 0 10 -262144
-1 -1;
#X text 1451 306 bang when finished reading;
#X floatatom 1562 531 5 0 0 0 - - -;
#X obj 1394 112 r trigger;
#X text 1571 492 limit minimum distance;
#X text 1465 872 comment;
#X msg 1455 269 open sonar01.wav \, 1;
#X obj 1574 835 print;
#X obj 1821 592 /~ 1;
#X obj 1849 177 bng 15 250 50 0 empty empty empty 17 7 0 10 -262144
-1 -1;
#X obj 1821 158 bng 15 250 50 0 empty empty empty 17 7 0 10 -262144
-1 -1;
#X msg 1849 253 1;
#X msg 1821 253 0;
#X text 1867 175 Start;
#X text 1841 156 Stop;
#X obj 1822 420 *~ 0.5;
#X floatatom 1970 399 5 0 0 0 - - -;
#X obj 1664 712 vu 15 120 empty empty -1 -8 0 10 -66577 -1 1 0;
#X obj 1663 685 - 100;
#X obj 1663 665 env~ 8192;
#X text 1704 739 fs;
#X text 1737 696 0dBfs = 100dB;
#X obj 1821 134 select 0 1;
#X obj 1855 398 / 127;
#X obj 1842 494 expr $f1 \; if($f1 <=0.15 \, 0.15 \, $f1);
#X obj 1843 538 / 0.15;
#X obj 1823 839 earplug~ 0 0;
#X obj 1821 287 readsf~;
#X text 1910 164 audio on/off;
#X msg 1912 130 \; pd dsp \$1;
#X obj 1864 374 hsl 128 15 0 127 0 0 empty empty empty -2 -8 0 10 -262144
-1 -1 4700 1;
#X text 1911 346 set volume from OSC;
#X text 1930 449 set volume from distance;
#X text 1882 863 audio output;
#X text 1879 252 Load and read audio file;
#X obj 1860 320 bng 15 250 50 0 empty empty empty 17 7 0 10 -262144
-1 -1;
#X text 1878 307 bang when finished reading;
#X floatatom 1989 532 5 0 0 0 - - -;
#X obj 1821 113 r trigger;
#X text 1998 493 limit minimum distance;
#X text 1892 873 comment;
#X msg 1882 270 open sonar01.wav \, 1;
#X obj 2001 836 print;
#X obj 1430 792 r azm2;
#X obj 1490 792 r elev2;
#X obj 1415 453 r dist_volume2;
#X obj 1428 346 r volume2;
#X obj 1842 454 r dist_volume3;
#X obj 1857 347 r volume3;
#X obj 1917 793 r elev3;
#X obj 1857 793 r azm3;
#X text 582 371 comment;
#X text 656 415 comment;
#X text 570 396 comment;
#X msg 413 499 0;
#X msg 528 541 0;
#X msg 751 506 0;
#X msg 1064 510 0;
#X obj 423 928 +~;
#X obj 480 986 +~;
#X obj 654 982 +~;
#X obj 716 1036 +~;
#X obj 240 473 s trigger;
#X connect 1 0 3 0;
#X connect 2 0 5 0;
#X connect 3 0 8 0;
#X connect 5 0 166 0;
#X connect 8 0 2 0;
#X connect 8 1 44 0;
#X connect 11 0 22 0;
#X connect 11 0 29 0;
#X connect 12 0 14 0;
#X connect 13 0 15 0;
#X connect 14 0 59 0;
#X connect 15 0 30 0;
#X connect 18 0 11 0;
#X connect 21 0 20 0;
#X connect 22 0 21 0;
#X connect 25 0 13 0;
#X connect 25 1 12 0;
#X connect 26 0 18 1;
#X connect 27 1 28 0;
#X connect 27 1 41 0;
#X connect 28 0 11 1;
#X connect 29 0 162 0;
#X connect 29 1 164 0;
#X connect 30 0 18 0;
#X connect 30 1 59 0;
#X connect 30 1 39 0;
#X connect 33 0 19 0;
#X connect 33 0 26 0;
#X connect 42 0 25 0;
#X connect 42 0 32 0;
#X connect 44 0 62 0;
#X connect 44 1 65 0;
#X connect 44 2 63 0;
#X connect 44 3 65 2;
#X connect 44 4 65 3;
#X connect 46 0 33 0;
#X connect 55 0 27 0;
#X connect 56 0 29 1;
#X connect 57 0 29 2;
#X connect 57 0 60 0;
#X connect 59 0 30 0;
#X connect 62 0 74 0;
#X connect 62 0 160 0;
#X connect 62 0 161 0;
#X connect 62 1 158 0;
#X connect 62 1 75 0;
#X connect 62 1 161 0;
#X connect 62 2 158 0;
#X connect 62 2 160 0;
#X connect 62 2 76 0;
#X connect 63 0 65 1;
#X connect 64 0 66 0;
#X connect 65 0 64 0;
#X connect 65 0 67 0;
#X connect 65 0 69 0;
#X connect 66 0 45 0;
#X connect 66 1 47 0;
#X connect 66 2 48 0;
#X connect 66 3 49 0;
#X connect 67 0 68 0;
#X connect 68 0 50 0;
#X connect 68 1 51 0;
#X connect 68 2 52 0;
#X connect 68 3 53 0;
#X connect 69 0 70 0;
#X connect 70 0 54 0;
#X connect 70 1 71 0;
#X connect 70 2 72 0;
#X connect 70 3 73 0;
#X connect 74 0 64 1;
#X connect 75 0 67 1;
#X connect 76 0 69 1;
#X connect 77 0 88 0;
#X connect 77 0 95 0;
#X connect 78 0 80 0;
#X connect 79 0 81 0;
#X connect 80 0 110 0;
#X connect 81 0 96 0;
#X connect 84 0 77 0;
#X connect 87 0 86 0;
#X connect 88 0 87 0;
#X connect 91 0 79 0;
#X connect 91 1 78 0;
#X connect 92 0 84 1;
#X connect 93 1 94 0;
#X connect 93 1 106 0;
#X connect 94 0 77 1;
#X connect 95 0 162 1;
#X connect 95 1 164 1;
#X connect 96 0 84 0;
#X connect 96 1 110 0;
#X connect 96 1 104 0;
#X connect 99 0 85 0;
#X connect 99 0 92 0;
#X connect 107 0 91 0;
#X connect 107 0 98 0;
#X connect 110 0 96 0;
#X connect 112 0 123 0;
#X connect 112 0 130 0;
#X connect 113 0 115 0;
#X connect 114 0 116 0;
#X connect 115 0 145 0;
#X connect 116 0 131 0;
#X connect 119 0 112 0;
#X connect 122 0 121 0;
#X connect 123 0 122 0;
#X connect 126 0 114 0;
#X connect 126 1 113 0;
#X connect 127 0 119 1;
#X connect 128 1 129 0;
#X connect 128 1 141 0;
#X connect 129 0 112 1;
#X connect 130 0 163 1;
#X connect 130 1 165 1;
#X connect 131 0 119 0;
#X connect 131 1 145 0;
#X connect 131 1 139 0;
#X connect 134 0 120 0;
#X connect 134 0 127 0;
#X connect 142 0 126 0;
#X connect 142 0 133 0;
#X connect 145 0 131 0;
#X connect 147 0 95 1;
#X connect 148 0 95 2;
#X connect 148 0 111 0;
#X connect 149 0 93 0;
#X connect 150 0 99 0;
#X connect 151 0 128 0;
#X connect 152 0 134 0;
#X connect 153 0 130 2;
#X connect 153 0 146 0;
#X connect 154 0 130 1;
#X connect 158 0 64 1;
#X connect 160 0 67 1;
#X connect 161 0 69 1;
#X connect 162 0 163 0;
#X connect 163 0 10 0;
#X connect 164 0 165 0;
#X connect 165 0 10 1;
