#N canvas 318 285 792 579 10;
#X declare -lib mrpeach;
#X obj 114 34 import mrpeach;
#X obj 112 106 udpreceive 6161;
#X obj 114 304 unpack i;
#X obj 114 450 print;
#X obj 112 146 unpackOSC;
#X text 240 105 Init OSC protocol;
#X obj 114 373 \$1;
#X text 53 272 Fetch back an Integer;
#X text 28 341 Save for later the value of "NbSpots;
#X obj 112 189 routeOSC /NbSpots /Position;
#X text 134 165 Look into the message "NbSpots" and "Position;
#X obj 292 291 unpack i f f f;
#X obj 303 450 print;
#X obj 248 450 print;
#X obj 362 451 print;
#X obj 418 451 print;
#X text 248 256 Unpack the position of the object #i;
#X connect 1 0 4 0;
#X connect 2 0 6 0;
#X connect 4 0 9 0;
#X connect 6 0 3 0;
#X connect 9 0 2 0;
#X connect 9 1 11 0;
#X connect 11 0 13 0;
#X connect 11 1 12 0;
#X connect 11 2 14 0;
#X connect 11 3 15 0;
